<?xml version="1.0" encoding="utf-8"?>
<!-- Generator: Adobe Illustrator 26.1.0, SVG Export Plug-In . SVG Version: 6.00 Build 0)  -->
<svg version="1.1" id="图层_1" xmlns="http://www.w3.org/2000/svg" xmlns:xlink="http://www.w3.org/1999/xlink" x="0px" y="0px"
	 viewBox="0 0 370 121.9" style="enable-background:new 0 0 370 121.9;" xml:space="preserve">
<style type="text/css">
	.st0{fill:#572D25;}
	.st1{enable-background:new    ;}
	.st2{fill:none;stroke:#562C25;stroke-width:3;stroke-miterlimit:10;}
	.st3{fill:none;stroke:#562C25;stroke-width:2;stroke-miterlimit:10;}
	.st4{fill:#572D25;stroke:#572D25;stroke-miterlimit:10;}
	.st5{fill:#FF678F;}
	.st6{fill:#6FA0FF;}
	.st7{fill:none;stroke:#562C25;stroke-width:0.5;stroke-miterlimit:10;}
</style>
<g id="レイヤー_1">
	<path class="st0" d="M203.3,28c-0.2-0.6-0.6-1-1.2-1.1l-6.9-1.5l-3.6-6.1c-0.3-0.5-0.8-0.8-1.4-0.8s-1.1,0.3-1.4,0.8l-3.6,6.1
		l-6.9,1.5c-0.6,0.1-1,0.5-1.2,1.1s-0.1,1.2,0.3,1.6l4.7,5.3l-0.7,7c-0.1,0.6,0.2,1.1,0.7,1.5c0.3,0.2,0.6,0.3,1,0.3
		c0.2,0,0.4,0,0.7-0.1l6.5-2.8l6.5,2.8c0.2,0.1,0.4,0.1,0.7,0.1s0.7-0.1,1-0.3c0.5-0.3,0.7-0.9,0.7-1.5l-0.7-7l4.7-5.3
		C203.3,29.2,203.5,28.5,203.3,28L203.3,28z M179.4,28.7c-0.4-0.1-0.4-0.2,0-0.3l6.2-1.3c0.4-0.1,0.9,0.1,1.2,0.4l2.9,3.2
		c0.3,0.3,0.2,0.5-0.2,0.4L179.4,28.7z M189.5,39.2l-5.8,2.6c-0.4,0.2-0.5,0-0.3-0.3l6.3-9.8c0.2-0.3,0.4-0.3,0.4,0.1v6.4h0.1
		C190.2,38.6,189.9,39,189.5,39.2z M196.9,41.5l-6.3-9.8c-0.2-0.3-0.1-0.5,0.2-0.3l5.1,2.6c0.4,0.2,0.7,0.6,0.7,1l0.6,6.3
		C197.3,41.7,197.1,41.8,196.9,41.5z M201,28.7L190.9,31c-0.4,0.1-0.7-0.2-0.7-0.6v-9.5c0-0.4,0.2-0.4,0.4-0.1l3.2,5.5
		c0.2,0.3,0.7,0.7,1.1,0.8l6.2,1.3C201.4,28.4,201.4,28.6,201,28.7z"/>
	<g>
		<path class="st0" d="M174.2,32.1h-20.5c-0.6,0-1-0.5-1-1c0-0.6,0.5-1,1-1h20.5c0.6,0,1,0.5,1,1S174.7,32.1,174.2,32.1z
			 M223.4,23.2c-0.5,0-0.9-0.3-1-0.8s0.2-1.1,0.7-1.2l3.2-0.9c0.5-0.2,1.1,0.2,1.2,0.7c0.1,0.6-0.2,1.1-0.7,1.2l-3.2,0.9
			C223.6,23.2,223.5,23.2,223.4,23.2z M206.8,27.6c-0.5,0-0.9-0.3-1-0.8s0.2-1.1,0.7-1.2l12.2-3.3c0.5-0.1,1.1,0.2,1.2,0.7
			c0.1,0.5-0.2,1.1-0.7,1.2L207,27.5C207,27.6,206.9,27.6,206.8,27.6z M167.4,38.2c-0.5,0-0.9-0.3-1-0.8s0.2-1.1,0.7-1.2l10.1-2.7
			c0.5-0.2,1.1,0.2,1.2,0.7c0.1,0.6-0.2,1.1-0.7,1.3l-10.1,2.7H167.4z M160.6,40c-0.5,0-0.9-0.3-1-0.8s0.2-1.1,0.7-1.2l2.9-0.8
			c0.5-0.1,1.1,0.2,1.2,0.7c0.1,0.5-0.2,1.1-0.7,1.2l-2.9,0.8C160.8,40,160.7,40,160.6,40z M213.1,38.2h-0.3l-10.1-2.7
			c-0.5-0.1-0.9-0.7-0.7-1.2c0.1-0.5,0.7-0.9,1.2-0.7l10.1,2.7c0.5,0.1,0.9,0.7,0.7,1.2C214,37.9,213.6,38.2,213.1,38.2z M219.8,40
			h-0.3l-2.9-0.8c-0.5-0.1-0.9-0.7-0.7-1.2c0.1-0.5,0.7-0.9,1.2-0.7l2.9,0.8c0.5,0.1,0.9,0.7,0.7,1.2C220.7,39.7,220.3,40,219.8,40z
			 M202.8,24.8c-0.4,0-0.7-0.2-0.9-0.5c-0.3-0.5-0.1-1.1,0.4-1.4l4.6-2.7c0.5-0.3,1.1-0.1,1.4,0.4c0.3,0.5,0.1,1.1-0.4,1.4l-4.6,2.7
			C203.2,24.8,203,24.8,202.8,24.8z M174.1,41.4c-0.4,0-0.7-0.2-0.9-0.5c-0.3-0.5-0.1-1.1,0.4-1.4l4.5-2.6c0.5-0.3,1.1-0.1,1.4,0.4
			c0.3,0.5,0.1,1.1-0.4,1.4l-4.5,2.6C174.4,41.4,174.3,41.4,174.1,41.4z M198.5,23.8c-0.3,0-0.5-0.1-0.7-0.3c-0.4-0.4-0.4-1,0-1.4
			l5.6-5.6c0.4-0.4,1-0.4,1.4,0s0.4,1,0,1.4l-5.6,5.7C199,23.7,198.7,23.8,198.5,23.8z M182.1,23.9c-0.3,0-0.5-0.1-0.7-0.3l-5.9-5.9
			c-0.4-0.4-0.4-1,0-1.4s1-0.4,1.4,0l5.9,5.9c0.4,0.4,0.4,1,0,1.4C182.6,23.8,182.3,23.9,182.1,23.9z M177.7,24.8
			c-0.2,0-0.3,0-0.5-0.1l-4.6-2.7c-0.5-0.3-0.7-0.9-0.4-1.4s0.9-0.7,1.4-0.4l4.6,2.7c0.5,0.3,0.7,0.9,0.4,1.4
			C178.4,24.6,178,24.8,177.7,24.8z M207.9,42.3c-0.2,0-0.3,0-0.5-0.1l-6.3-3.7c-0.5-0.3-0.7-0.9-0.4-1.4s0.9-0.7,1.4-0.4l6.3,3.7
			c0.5,0.3,0.7,0.9,0.4,1.4C208.6,42.1,208.3,42.3,207.9,42.3z M149,32.1h-5.3c-0.6,0-1-0.5-1-1c0-0.6,0.5-1,1-1h5.3
			c0.6,0,1,0.5,1,1S149.5,32.1,149,32.1z M139.8,32.1h-1.2c-0.6,0-1-0.5-1-1c0-0.6,0.5-1,1-1h1.2c0.6,0,1,0.5,1,1
			S140.4,32.1,139.8,32.1z M226.5,32.1H206c-0.6,0-1-0.5-1-1c0-0.6,0.5-1,1-1h20.5c0.6,0,1,0.5,1,1S227.1,32.1,226.5,32.1z
			 M236.5,32.1h-5.3c-0.6,0-1-0.5-1-1c0-0.6,0.5-1,1-1h5.3c0.6,0,1,0.5,1,1C237.6,31.6,237.1,32.1,236.5,32.1z M241.6,32.1h-1.2
			c-0.6,0-1-0.5-1-1c0-0.6,0.5-1,1-1h1.2c0.6,0,1,0.5,1,1S242.2,32.1,241.6,32.1z M156.8,23.1h-0.3l-3.2-0.9
			c-0.5-0.2-0.9-0.7-0.7-1.2c0.1-0.5,0.7-0.9,1.2-0.7l3.2,0.9c0.5,0.2,0.9,0.7,0.7,1.3C157.6,22.8,157.2,23.1,156.8,23.1z
			 M173.3,27.5H173l-12.2-3.3c-0.5-0.1-0.9-0.7-0.7-1.2c0.1-0.5,0.7-0.9,1.2-0.7l12.2,3.3c0.5,0.1,0.9,0.7,0.7,1.2
			C174.2,27.2,173.8,27.5,173.3,27.5z"/>
	</g>
</g>
<g id="图层_2_00000032632664240334553610000002251368246333400464_">
	<g class="st1">
		<path class="st0" d="M13.3,42.2v-6.5H33v-6.5h6.5v6.5h19.6v-6.5h6.5v6.5h19.6v6.5H65.7v6.5h-6.5v-6.5H39.5v6.5H33v-6.5H13.3z
			 M13.3,61.8v-6.5h32.7v-6.5h6.5v6.5h32.7v6.5H33v13.1h45.8v26.2H59.1v-6.5h13.1V81.4H26.4V61.8H13.3z M13.3,101.1v-6.5h6.5v6.5
			H13.3z M26.4,81.4v13.1h-6.5V81.4H26.4z"/>
	</g>
	<g class="st1">
		<path class="st2" d="M13.3,42.2v-6.5H33v-6.5h6.5v6.5h19.6v-6.5h6.5v6.5h19.6v6.5H65.7v6.5h-6.5v-6.5H39.5v6.5H33v-6.5H13.3z
			 M13.3,61.8v-6.5h32.7v-6.5h6.5v6.5h32.7v6.5H33v13.1h45.8v26.2H59.1v-6.5h13.1V81.4H26.4V61.8H13.3z M13.3,101.1v-6.5h6.5v6.5
			H13.3z M26.4,81.4v13.1h-6.5V81.4H26.4z"/>
	</g>
	<g class="st1">
		<path class="st0" d="M97.7,53.9V49h24.7v-9.9h4.9V49h24.7v4.9h-9.9v9.9h-4.9v-9.9h-24.7v9.9h-4.9v-9.9H97.7z M97.7,93.4v-4.9h9.9
			v4.9H97.7z M107.5,88.5v-4.9h9.9v4.9H107.5z M117.4,63.8v4.9h-4.9v-4.9H117.4z M117.4,73.7v-4.9h4.9v4.9H117.4z M117.4,83.6v-4.9
			h4.9v4.9H117.4z M127.3,73.7v4.9h-4.9v-4.9H127.3z M127.3,68.7h4.9v4.9h-4.9V68.7z M127.3,78.6h4.9v4.9h-4.9V78.6z M137.1,63.8
			v4.9h-4.9v-4.9H137.1z M142.1,83.6v4.9h-9.9v-4.9H142.1z M142.1,88.5h9.9v4.9h-9.9V88.5z"/>
	</g>
	<g class="st1">
		<path class="st2" d="M97.7,53.9V49h24.7v-9.9h4.9V49h24.7v4.9h-9.9v9.9h-4.9v-9.9h-24.7v9.9h-4.9v-9.9H97.7z M97.7,93.4v-4.9h9.9
			v4.9H97.7z M107.5,88.5v-4.9h9.9v4.9H107.5z M117.4,63.8v4.9h-4.9v-4.9H117.4z M117.4,73.7v-4.9h4.9v4.9H117.4z M117.4,83.6v-4.9
			h4.9v4.9H117.4z M127.3,73.7v4.9h-4.9v-4.9H127.3z M127.3,68.7h4.9v4.9h-4.9V68.7z M127.3,78.6h4.9v4.9h-4.9V78.6z M137.1,63.8
			v4.9h-4.9v-4.9H137.1z M142.1,83.6v4.9h-9.9v-4.9H142.1z M142.1,88.5h9.9v4.9h-9.9V88.5z"/>
	</g>
	<g class="st1">
		<path class="st0" d="M170.2,55.3v-3.5h3.5v3.5H170.2z M170.2,62.3v-3.5h3.5v3.5H170.2z M170.2,76.5v-3.5h3.5v3.5H170.2z
			 M170.2,87.1v-3.5h3.5v3.5H170.2z M177.3,58.8h-3.5v-3.5h3.5V58.8z M180.8,87.1h-3.5V72.9h-3.5v-3.5h3.5V58.8h3.5V87.1z
			 M177.3,87.1v3.5h-3.5v-3.5H177.3z M180.8,51.7v3.5h-3.5v-3.5H180.8z M184.3,90.6v-3.5h10.6V72.9h-10.6v-3.5h10.6V55.3h-10.6v-3.5
			h24.7v3.5h-10.6v14.1h10.6v3.5h-10.6v14.1h10.6v3.5H184.3z"/>
	</g>
	<g class="st1">
		<path class="st3" d="M170.2,55.3v-3.5h3.5v3.5H170.2z M170.2,62.3v-3.5h3.5v3.5H170.2z M170.2,76.5v-3.5h3.5v3.5H170.2z
			 M170.2,87.1v-3.5h3.5v3.5H170.2z M177.3,58.8h-3.5v-3.5h3.5V58.8z M180.8,87.1h-3.5V72.9h-3.5v-3.5h3.5V58.8h3.5V87.1z
			 M177.3,87.1v3.5h-3.5v-3.5H177.3z M180.8,51.7v3.5h-3.5v-3.5H180.8z M184.3,90.6v-3.5h10.6V72.9h-10.6v-3.5h10.6V55.3h-10.6v-3.5
			h24.7v3.5h-10.6v14.1h10.6v3.5h-10.6v14.1h10.6v3.5H184.3z"/>
	</g>
	<g class="st1">
		<path class="st0" d="M225,48.3v-4.8h9.7v-4.8h4.8v4.8h9.7v4.8h-9.7v4.8h4.8v4.8h-4.8v14.5h-4.8v-9.7h-4.8v-9.7h4.8v-4.8H225z
			 M225,67.6v-4.8h4.8v4.8H225z M225,91.8V87h4.8v4.8H225z M234.6,87h-4.8v-9.7h4.8V87z M268.5,91.8h-29.1V72.5h4.8V87h19.4v-4.8
			h4.8V91.8z M244.3,57.9h4.8v9.7h-4.8V57.9z M254,72.5v4.8h-4.8v-4.8H254z M278.2,72.5H254V38.6h24.2V72.5z M258.8,77.3v4.8H254
			v-4.8H258.8z M258.8,48.3h14.5v-4.8h-14.5V48.3z M258.8,57.9h14.5v-4.8h-14.5V57.9z M258.8,62.8v4.8h14.5v-4.8H258.8z M268.5,82.2
			v-4.8h4.8v4.8H268.5z M278.2,91.8h-4.8v-9.7h4.8V91.8z"/>
	</g>
	<g class="st1">
		<path class="st2" d="M225,48.3v-4.8h9.7v-4.8h4.8v4.8h9.7v4.8h-9.7v4.8h4.8v4.8h-4.8v14.5h-4.8v-9.7h-4.8v-9.7h4.8v-4.8H225z
			 M225,67.6v-4.8h4.8v4.8H225z M225,91.8V87h4.8v4.8H225z M234.6,87h-4.8v-9.7h4.8V87z M268.5,91.8h-29.1V72.5h4.8V87h19.4v-4.8
			h4.8V91.8z M244.3,57.9h4.8v9.7h-4.8V57.9z M254,72.5v4.8h-4.8v-4.8H254z M278.2,72.5H254V38.6h24.2V72.5z M258.8,77.3v4.8H254
			v-4.8H258.8z M258.8,48.3h14.5v-4.8h-14.5V48.3z M258.8,57.9h14.5v-4.8h-14.5V57.9z M258.8,62.8v4.8h14.5v-4.8H258.8z M268.5,82.2
			v-4.8h4.8v4.8H268.5z M278.2,91.8h-4.8v-9.7h4.8V91.8z"/>
	</g>
	<g class="st1">
		<path class="st0" d="M294,101.1V42.2h18.1V29.1h6v13.1h18.1V29.1h6v13.1h18.1v58.9H294z M300,68.4h12.1V48.7H300V68.4z M300,74.9
			v19.6h12.1V74.9H300z M318.2,68.4h18.1V48.7h-18.1V68.4z M318.2,74.9v19.6h18.1V74.9H318.2z M342.3,68.4h12.1V48.7h-12.1V68.4z
			 M342.3,74.9v19.6h12.1V74.9H342.3z"/>
	</g>
	<g class="st1">
		<path class="st2" d="M294,101.1V42.2h18.1V29.1h6v13.1h18.1V29.1h6v13.1h18.1v58.9H294z M300,68.4h12.1V48.7H300V68.4z M300,74.9
			v19.6h12.1V74.9H300z M318.2,68.4h18.1V48.7h-18.1V68.4z M318.2,74.9v19.6h18.1V74.9H318.2z M342.3,68.4h12.1V48.7h-12.1V68.4z
			 M342.3,74.9v19.6h12.1V74.9H342.3z"/>
	</g>
	<g>
		<g>
			<path class="st4" d="M95,26c-1.1-3.8-2.2-7.5-3.3-11.3c0.6-0.2,1.1-0.3,1.7-0.5c0.5,1.7,1,3.4,1.4,5c1.7-0.5,3.3-0.9,5-1.4
				c-0.5-1.7-0.9-3.4-1.4-5.1c0.6-0.2,1.1-0.3,1.7-0.5c1,3.8,2,7.6,3,11.4c-0.5,0.1-1.1,0.3-1.6,0.4c-0.5-1.7-0.9-3.4-1.4-5.1
				c-1.7,0.4-3.3,0.9-5,1.4c0.5,1.7,1,3.4,1.4,5C96,25.7,95.5,25.9,95,26z"/>
			<path class="st4" d="M108.7,21c-0.7-3-1.4-5.9-2.2-8.9c0.6-0.1,1.1-0.3,1.7-0.4c0.7,3,1.4,5.9,2.1,8.9
				C109.8,20.7,109.3,20.9,108.7,21z M113.1,9.2c0.1,0.4,0.2,0.9,0.3,1.3c-1.7,0.4-3.4,0.8-5.1,1.2c-0.1-0.4-0.2-0.8-0.3-1.3
				C109.6,10,111.3,9.6,113.1,9.2z M115.3,19.4c0.1,0.4,0.2,0.9,0.3,1.3c-1.7,0.4-3.3,0.8-5,1.1c-0.1-0.4-0.2-0.8-0.3-1.3
				C112,20.2,113.7,19.8,115.3,19.4z M113.3,10.5c0.6-0.1,1.1-0.3,1.7-0.4c0.7,3,1.3,6,2,8.9c-0.6,0.1-1.1,0.2-1.7,0.4
				C114.7,16.5,114,13.5,113.3,10.5z"/>
			<path class="st4" d="M122.9,17.8c-0.7-3.4-1.4-6.8-2.1-10.3c0.6-0.1,1.1-0.2,1.7-0.3c0.7,3.4,1.3,6.8,2,10.3
				C124,17.6,123.5,17.7,122.9,17.8z M129.6,16.6c0.1,0.4,0.2,0.9,0.2,1.3c-1.7,0.3-3.3,0.6-5,0.9c-0.1-0.4-0.2-0.9-0.3-1.3
				C126.3,17.2,127.9,16.9,129.6,16.6z M127.7,6.3c0.6-0.1,1.1-0.2,1.7-0.3c0.6,3.4,1.2,6.9,1.8,10.3c-0.6,0.1-1.1,0.2-1.7,0.3
				C129,13.1,128.4,9.7,127.7,6.3z"/>
			<path class="st4" d="M137.4,16.6c-0.6-3.9-1.2-7.8-1.8-11.6c2.3-0.4,4.6-0.7,6.9-1c0.1,0.4,0.1,0.9,0.2,1.3
				c-1.7,0.2-3.4,0.5-5.2,0.8c0.2,1.3,0.4,2.6,0.6,3.9c1.7-0.3,3.4-0.5,5.1-0.7c0.1,0.4,0.1,0.9,0.2,1.3c-1.7,0.2-3.4,0.5-5.1,0.7
				c0.2,1.3,0.4,2.6,0.6,3.9c1.7-0.3,3.4-0.5,5-0.7c0.1,0.4,0.1,0.9,0.2,1.3C141.9,15.9,139.7,16.2,137.4,16.6z M143.2,9.1
				c-0.2-1.3-0.4-2.6-0.5-3.9c0.6-0.1,1.1-0.2,1.7-0.2c0.2,1.3,0.3,2.6,0.5,3.9C144.4,8.9,143.8,9,143.2,9.1z M144,14.3
				c-0.2-1.3-0.4-2.6-0.5-3.9c0.6-0.1,1.1-0.2,1.7-0.2c0.2,1.3,0.3,2.6,0.5,3.9C145.1,14.1,144.5,14.2,144,14.3z"/>
			<path class="st4" d="M151.6,13.3c-0.4-3.5-0.8-6.9-1.2-10.4c0.6-0.1,1.2-0.1,1.7-0.2c0.4,3.5,0.8,6.9,1.2,10.4
				C152.7,13.2,152.2,13.2,151.6,13.3z M158.4,12.6c0,0.4,0.1,0.9,0.1,1.3c-1.7,0.2-3.4,0.3-5,0.5c0-0.4-0.1-0.9-0.1-1.3
				C155,12.9,156.7,12.7,158.4,12.6z M157.4,2.2c0.6-0.1,1.2-0.1,1.7-0.2c0.3,3.5,0.6,6.9,1,10.4c-0.6,0.1-1.1,0.1-1.7,0.2
				C158,9.1,157.7,5.6,157.4,2.2z"/>
			<path class="st4" d="M166.2,13.2c-0.3-3.9-0.6-7.8-0.9-11.7c0.6,0,1.2-0.1,1.7-0.1c0,0.4,0.1,0.9,0.1,1.3c0.6,0,1.2-0.1,1.7-0.1
				c0.1,0.9,0.1,1.7,0.2,2.6c-0.6,0-1.1,0.1-1.7,0.1c0.2,2.6,0.4,5.2,0.5,7.8C167.3,13.1,166.7,13.2,166.2,13.2z M169,5.2
				c0.6,0,1.1-0.1,1.7-0.1c0.1,0.9,0.1,1.7,0.2,2.6c-0.6,0-1.1,0.1-1.7,0.1C169.1,6.9,169.1,6,169,5.2z M171,10.3
				c-0.1-0.9-0.1-1.7-0.2-2.6c0.6,0,1.1-0.1,1.7-0.1c-0.1-2.2-0.2-4.4-0.4-6.5c0.6,0,1.2-0.1,1.7-0.1c0.2,3.9,0.4,7.8,0.6,11.8
				c-0.6,0-1.1,0.1-1.7,0.1c0-0.9-0.1-1.7-0.1-2.6C172.2,10.2,171.6,10.2,171,10.3z"/>
			<path class="st4" d="M180.6,12.5c-0.1-3.9-0.3-7.8-0.4-11.8c2.9-0.1,5.8-0.2,8.7-0.2c0,0.4,0,0.9,0,1.3c-2.3,0-4.6,0.1-6.9,0.1
				c0,1.3,0.1,2.6,0.1,3.9c1.7,0,3.4-0.1,5.2-0.1c0,0.4,0,0.9,0,1.3c-1.7,0-3.4,0.1-5.1,0.1c0,1.7,0.1,3.5,0.1,5.2
				C181.7,12.4,181.1,12.4,180.6,12.5z"/>
			<path class="st4" d="M195,8.4c0.6,0,1.1,0,1.7,0c0,1.3,0,2.6-0.1,3.9c-0.6,0-1.1,0-1.7,0C195,11,195,9.7,195,8.4z M196.7,8.4
				c0-1.7,0-3.5,0.1-5.2c0.6,0,1.2,0,1.7,0c0,1.3,0,2.6-0.1,3.9c0.6,0,1.1,0,1.7,0c0-1.3,0.1-2.6,0.1-3.9c0.6,0,1.2,0,1.7,0
				c0,1.7-0.1,3.5-0.1,5.2C200.1,8.4,198.4,8.4,196.7,8.4z M198.5,3.2c0-0.9,0-1.7,0-2.6c0.6,0,1.2,0,1.7,0c0,0.9,0,1.7-0.1,2.6
				C199.7,3.2,199.1,3.2,198.5,3.2z M201.9,8.5c0.6,0,1.1,0,1.7,0.1c0,1.3-0.1,2.6-0.1,3.9c-0.6,0-1.1,0-1.7-0.1
				C201.8,11.1,201.8,9.8,201.9,8.5z"/>
			<path class="st4" d="M209.4,12.7c0.2-3.9,0.4-7.8,0.6-11.8c0.6,0,1.2,0.1,1.7,0.1c0,0.4,0,0.9-0.1,1.3c0.6,0,1.2,0.1,1.7,0.1
				c-0.1,0.9-0.1,1.7-0.2,2.6c-0.6,0-1.1-0.1-1.7-0.1c-0.1,2.6-0.3,5.2-0.4,7.8C210.6,12.8,210,12.7,209.4,12.7z M213.3,5.1
				c0.6,0,1.1,0.1,1.7,0.1c-0.1,0.9-0.1,1.7-0.2,2.6c-0.6,0-1.1-0.1-1.7-0.1C213.2,6.8,213.2,5.9,213.3,5.1z M214.6,10.4
				c0.1-0.9,0.1-1.7,0.2-2.6c0.6,0,1.1,0.1,1.7,0.1c0.2-2.2,0.3-4.3,0.5-6.5c0.6,0,1.2,0.1,1.7,0.1c-0.3,3.9-0.6,7.8-0.9,11.7
				c-0.6,0-1.1-0.1-1.7-0.1c0.1-0.9,0.1-1.7,0.2-2.6C215.8,10.5,215.2,10.4,214.6,10.4z"/>
			<path class="st4" d="M224.8,3.3c0-0.4,0.1-0.9,0.1-1.3c2.9,0.3,5.8,0.6,8.7,0.9c-0.1,0.4-0.1,0.9-0.2,1.3
				c-1.2-0.1-2.3-0.3-3.5-0.4c-0.4,3.5-0.7,6.9-1.1,10.4c-0.6-0.1-1.1-0.1-1.7-0.2c0.4-3.5,0.7-6.9,1.1-10.4
				C227.1,3.5,225.9,3.4,224.8,3.3z"/>
			<path class="st4" d="M238.7,11.4c0.6,0.1,1.1,0.2,1.7,0.2c-0.2,1.3-0.4,2.6-0.5,3.9c-0.6-0.1-1.1-0.2-1.7-0.2
				C238.4,14,238.5,12.7,238.7,11.4z M240.4,11.7c0.2-1.7,0.5-3.5,0.7-5.2c0.6,0.1,1.1,0.2,1.7,0.2c-0.2,1.3-0.4,2.6-0.6,3.9
				c0.6,0.1,1.1,0.2,1.7,0.2c0.2-1.3,0.4-2.6,0.6-3.9c0.6,0.1,1.1,0.2,1.7,0.3c-0.3,1.7-0.5,3.4-0.8,5.2
				C243.8,12.2,242.1,11.9,240.4,11.7z M242.8,6.7c0.1-0.9,0.2-1.7,0.4-2.6c0.6,0.1,1.2,0.2,1.7,0.3c-0.1,0.9-0.3,1.7-0.4,2.6
				C244,6.9,243.4,6.8,242.8,6.7z M245.5,12.4c0.6,0.1,1.1,0.2,1.7,0.3c-0.2,1.3-0.4,2.6-0.6,3.9c-0.6-0.1-1.1-0.2-1.7-0.3
				C245.1,15,245.3,13.7,245.5,12.4z"/>
			<path class="st4" d="M253.9,9.8c0.2-0.9,0.3-1.7,0.5-2.6c0.6,0.1,1.1,0.2,1.7,0.3c-0.2,0.9-0.3,1.7-0.5,2.6
				C255,10,254.4,9.9,253.9,9.8z M253.2,13.7c0.6,0.1,1.1,0.2,1.7,0.3c-0.2,0.9-0.3,1.7-0.5,2.6c-0.6-0.1-1.1-0.2-1.7-0.3
				C252.9,15.4,253,14.5,253.2,13.7z M261.2,8.5c-1.7-0.3-3.4-0.7-5.1-1c0.1-0.4,0.2-0.9,0.2-1.3c1.7,0.3,3.4,0.6,5.2,1
				C261.3,7.7,261.2,8.1,261.2,8.5z M257.3,10.4c-0.1,0.4-0.2,0.9-0.2,1.3c-0.6-0.1-1.1-0.2-1.7-0.3c0.1-0.4,0.2-0.9,0.2-1.3
				C256.1,10.2,256.7,10.3,257.3,10.4z M259.4,17.5c-0.1,0.4-0.2,0.9-0.3,1.3c-1.7-0.3-3.3-0.6-5-0.9c0.1-0.4,0.2-0.9,0.2-1.3
				C256.1,16.9,257.7,17.2,259.4,17.5z M257,11.7c0.6,0.1,1.1,0.2,1.7,0.3c-0.1,0.4-0.2,0.9-0.2,1.3c-0.6-0.1-1.1-0.2-1.7-0.3
				C256.9,12.6,256.9,12.1,257,11.7z M260.2,13.6c-0.1,0.4-0.2,0.9-0.3,1.3c-0.6-0.1-1.1-0.2-1.7-0.3c0.1-0.4,0.2-0.9,0.2-1.3
				C259,13.4,259.6,13.5,260.2,13.6z M260.7,11.1c0.2-0.9,0.3-1.7,0.5-2.6c0.6,0.1,1.1,0.2,1.7,0.3c-0.2,0.9-0.3,1.7-0.5,2.6
				C261.8,11.3,261.2,11.2,260.7,11.1z M259.9,14.9c0.6,0.1,1.1,0.2,1.7,0.3c-0.2,0.9-0.3,1.7-0.5,2.6c-0.6-0.1-1.1-0.2-1.7-0.3
				C259.6,16.6,259.7,15.8,259.9,14.9z"/>
			<path class="st4" d="M266.7,20.3c0.1-0.4,0.2-0.9,0.3-1.3c1.1,0.2,2.2,0.5,3.3,0.7c0.7-3,1.4-6,2-8.9c-1.1-0.3-2.3-0.5-3.4-0.8
				c0.1-0.4,0.2-0.9,0.3-1.3c2.9,0.6,5.7,1.3,8.5,2c-0.1,0.4-0.2,0.8-0.3,1.3c-1.1-0.3-2.3-0.5-3.4-0.8c-0.7,3-1.4,5.9-2.1,8.9
				c1.1,0.3,2.2,0.5,3.3,0.8c-0.1,0.4-0.2,0.8-0.3,1.3C272.2,21.6,269.5,21,266.7,20.3z"/>
			<path class="st4" d="M281.8,20c0.6,0.1,1.1,0.3,1.7,0.4c-0.3,1.3-0.7,2.5-1,3.8c-0.5-0.1-1.1-0.3-1.6-0.4
				C281.2,22.5,281.5,21.2,281.8,20z M283.5,20.4c0.5-1.7,0.9-3.4,1.4-5.1c0.6,0.2,1.1,0.3,1.7,0.5c-0.3,1.3-0.7,2.5-1,3.8
				c0.6,0.2,1.1,0.3,1.7,0.5c0.4-1.3,0.7-2.5,1.1-3.8c0.6,0.2,1.1,0.3,1.7,0.5c-0.5,1.7-1,3.4-1.4,5
				C286.8,21.3,285.2,20.8,283.5,20.4z M286.5,15.8c0.2-0.8,0.5-1.7,0.7-2.5c0.6,0.2,1.1,0.3,1.7,0.5c-0.2,0.8-0.5,1.7-0.7,2.5
				C287.7,16.1,287.1,16,286.5,15.8z M288.5,21.8c0.6,0.2,1.1,0.3,1.7,0.5c-0.4,1.3-0.7,2.5-1.1,3.8c-0.5-0.2-1.1-0.3-1.6-0.5
				C287.8,24.3,288.1,23,288.5,21.8z"/>
		</g>
	</g>
	<path class="st5" d="M31.5,27.7"/>
	<polyline class="st5" points="31.5,34.2 11.9,34.2 11.9,43.6 31.5,43.6 31.5,50.2 41,34.2 41,27.7 31.5,27.7 	"/>
	<polygon class="st6" points="80.3,73.5 80.3,83 56.9,83 66.6,73.4 	"/>
	<polyline class="st5" points="96.1,87 96.1,94.9 109,94.9 109,89.9 118.8,89.9 118.8,85 115.8,85 115.8,82.2 106.1,82.2 
		106.1,85.3 106.1,86 106.1,86.6 106.1,86.8 106.1,87 	"/>
	<polygon class="st6" points="183.3,86 183.3,91.6 193.8,91.6 199.4,86.1 	"/>
	<polygon class="st5" points="241,71 241,73.9 238,73.9 238,85.5 238,93.4 245.9,85.5 245.9,71 	"/>
	<polygon class="st5" points="343.7,102.6 352.9,93 352.9,84.3 362,84.3 362,102.6 	"/>
	<polygon class="st6" points="310.6,40.7 301.5,50.1 301.5,58.1 292.5,67.1 292.5,40.7 	"/>
</g>
<g>
	<g class="st1">
		<path class="st0" d="M78,116.9v-7.5h0.8v1.7h0.8v1.7h-0.8v4.2H78z M79.7,114.4v-1.7h0.8v1.7H79.7z M80.5,112.7v-1.7h0.8v-1.7h0.8
			v7.5h-0.8v-4.2H80.5z"/>
		<path class="st0" d="M84.9,114.4h0.8v2.5h-0.8V114.4z M85.7,114.4v-3.3h0.8v2.5h0.8v-2.5h0.8v3.3H85.7z M86.6,111.1v-1.7h0.8v1.7
			H86.6z M88.3,114.4h0.8v2.5h-0.8V114.4z"/>
		<path class="st0" d="M91.8,116.9v-7.5h0.8v0.8h0.8v1.7h-0.8v5H91.8z M93.5,111.9h0.8v1.7h-0.8V111.9z M94.3,115.2v-1.7h0.8v-4.2
			H96v7.5h-0.8v-1.7H94.3z"/>
		<path class="st0" d="M98.7,116.1v-5.8h0.8v5.8H98.7z M99.6,110.2v-0.8h2.5v0.8H99.6z M99.6,116.1h1.7v0.8h-1.7V116.1z
			 M100.4,113.6v-0.8h2.5v4.2h-0.8v-0.8h-0.8v-0.8h0.8v-1.7H100.4z M102.1,111.9v-1.7h0.8v1.7H102.1z"/>
		<path class="st0" d="M105.6,114.4h0.8v2.5h-0.8V114.4z M106.5,114.4v-3.3h0.8v2.5h0.8v-2.5h0.8v3.3H106.5z M107.3,111.1v-1.7h0.8
			v1.7H107.3z M109,114.4h0.8v2.5H109V114.4z"/>
		<path class="st0" d="M117.7,110.2v-0.8h4.2v0.8h-1.7v6.7h-0.8v-6.7H117.7z"/>
		<path class="st0" d="M124.7,116.9v-0.8h1.7v-5.8h-1.7v-0.8h4.2v0.8h-1.7v5.8h1.7v0.8H124.7z"/>
		<path class="st0" d="M131.6,116.9v-7.5h0.8v1.7h0.8v1.7h-0.8v4.2H131.6z M133.3,114.4v-1.7h0.8v1.7H133.3z M134.1,112.7v-1.7h0.8
			v-1.7h0.8v7.5h-0.8v-4.2H134.1z"/>
		<path class="st0" d="M138.5,116.9v-7.5h4.2v0.8h-3.4v2.5h3.4v0.8h-3.4v2.5h3.4v0.8H138.5z"/>
		<path class="st0" d="M150.6,116.9v-7.5h0.8v3.3h0.8v0.8h-0.8v3.3H150.6z M152.3,112.7v-0.8h0.8v0.8H152.3z M152.3,114.4v-0.8h0.8
			v0.8H152.3z M154,111.9h-0.8v-1.7h0.8V111.9z M154,114.4v1.7h-0.8v-1.7H154z M154,110.2v-0.8h0.8v0.8H154z M154,116.1h0.8v0.8H154
			V116.1z"/>
		<path class="st0" d="M157.5,116.9v-0.8h1.7v-5.8h-1.7v-0.8h4.2v0.8H160v5.8h1.7v0.8H157.5z"/>
		<path class="st0" d="M164.4,116.9v-7.5h3.4v0.8h-2.5v2.5h2.5v1.7H167v-0.8h-1.7v3.3H164.4z M167.8,112.7v-2.5h0.8v2.5H167.8z
			 M167.8,114.4h0.8v2.5h-0.8V114.4z"/>
		<path class="st0" d="M171.3,114.4h0.8v2.5h-0.8V114.4z M172.2,114.4v-3.3h0.8v2.5h0.8v-2.5h0.8v3.3H172.2z M173,111.1v-1.7h0.8
			v1.7H173z M174.7,114.4h0.8v2.5h-0.8V114.4z"/>
		<path class="st0" d="M178.2,116.9v-7.5h3.4v0.8h-2.5v2.5h2.5v1.7h-0.8v-0.8h-1.7v3.3H178.2z M181.6,112.7v-2.5h0.8v2.5H181.6z
			 M181.6,114.4h0.8v2.5h-0.8V114.4z"/>
		<path class="st0" d="M185.2,114.4h0.8v2.5h-0.8V114.4z M186,114.4v-3.3h0.8v2.5h0.8v-2.5h0.8v3.3H186z M186.8,111.1v-1.7h0.8v1.7
			H186.8z M188.5,114.4h0.8v2.5h-0.8V114.4z"/>
		<path class="st0" d="M197.3,116.9v-7.5h0.8v1.7h2.5v0.8h-2.5v5H197.3z M200.7,116.9v-5h0.8v5H200.7z"/>
		<path class="st0" d="M204.2,116.1v-4.2h0.8v4.2H204.2z M207.6,111.1v0.8H205v-0.8H207.6z M207.6,116.1v0.8H205v-0.8H207.6z
			 M207.6,111.9h0.8v4.2h-0.8V111.9z"/>
		<path class="st0" d="M211.1,116.9v-5.8h1.7v0.8H212v5H211.1z M212.8,116.9v-5h0.8v5H212.8z M213.6,111.9v-0.8h0.8v0.8H213.6z
			 M214.5,116.9v-5h0.8v5H214.5z"/>
		<path class="st0" d="M218,116.1v-4.2h0.8v4.2H218z M221.4,111.1v0.8h-2.5v-0.8H221.4z M221.4,116.1v0.8h-2.5v-0.8H221.4z
			 M221.4,111.9h0.8v4.2h-0.8V111.9z"/>
		<path class="st0" d="M230.1,116.9v-7.5h4.2v0.8H231v2.5h2.5v0.8H231v3.3H230.1z"/>
		<path class="st0" d="M237.1,114.4h0.8v2.5h-0.8V114.4z M237.9,114.4v-3.3h0.8v2.5h0.8v-2.5h0.8v3.3H237.9z M238.7,111.1v-1.7h0.8
			v1.7H238.7z M240.4,114.4h0.8v2.5h-0.8V114.4z"/>
		<path class="st0" d="M244,116.9v-7.5h0.8v0.8h0.8v1.7h-0.8v5H244z M245.7,111.9h0.8v1.7h-0.8V111.9z M246.5,115.2v-1.7h0.8v-4.2
			h0.8v7.5h-0.8v-1.7H246.5z"/>
		<path class="st0" d="M250.9,110.2v-0.8h4.2v0.8h-1.7v6.7h-0.8v-6.7H250.9z"/>
		<path class="st0" d="M257.8,114.4h0.8v2.5h-0.8V114.4z M258.6,114.4v-3.3h0.8v2.5h0.8v-2.5h0.8v3.3H258.6z M259.5,111.1v-1.7h0.8
			v1.7H259.5z M261.2,114.4h0.8v2.5h-0.8V114.4z"/>
		<path class="st0" d="M264.7,111.9v-1.7h0.8v1.7H264.7z M264.7,114.4h0.8v1.7h-0.8V114.4z M268.1,110.2h-2.5v-0.8h2.5V110.2z
			 M266.4,111.9v0.8h-0.8v-0.8H266.4z M268.1,116.1v0.8h-2.5v-0.8H268.1z M266.4,112.7h0.8v0.8h-0.8V112.7z M268.1,113.6v0.8h-0.8
			v-0.8H268.1z M268.1,111.9v-1.7h0.8v1.7H268.1z M268.1,114.4h0.8v1.7h-0.8V114.4z"/>
		<path class="st0" d="M271.6,111.9v-2.5h0.8v2.5H271.6z M272.4,111.9h0.8v1.7h-0.8V111.9z M273.3,116.9v-3.3h0.8v3.3H273.3z
			 M274.1,111.9h0.8v1.7h-0.8V111.9z M275,111.9v-2.5h0.8v2.5H275z"/>
		<path class="st0" d="M283.7,116.9v-7.5h3.4v0.8h-2.5v2.5h2.5v1.7h-0.8v-0.8h-1.7v3.3H283.7z M287.1,112.7v-2.5h0.8v2.5H287.1z
			 M287.1,114.4h0.8v2.5h-0.8V114.4z"/>
		<path class="st0" d="M290.6,116.9v-7.5h3.4v0.8h-2.5v2.5h2.5v0.8h-2.5v3.3H290.6z M294,112.7v-2.5h0.8v2.5H294z"/>
		<path class="st0" d="M297.6,116.1v-5.8h0.8v5.8H297.6z M298.4,110.2v-0.8h2.5v0.8H298.4z M298.4,116.1h1.7v0.8h-1.7V116.1z
			 M299.2,113.6v-0.8h2.5v4.2h-0.8v-0.8h-0.8v-0.8h0.8v-1.7H299.2z M300.9,111.9v-1.7h0.8v1.7H300.9z"/>
	</g>
	<g class="st1">
		<path class="st7" d="M78,116.9v-7.5h0.8v1.7h0.8v1.7h-0.8v4.2H78z M79.7,114.4v-1.7h0.8v1.7H79.7z M80.5,112.7v-1.7h0.8v-1.7h0.8
			v7.5h-0.8v-4.2H80.5z"/>
		<path class="st7" d="M84.9,114.4h0.8v2.5h-0.8V114.4z M85.7,114.4v-3.3h0.8v2.5h0.8v-2.5h0.8v3.3H85.7z M86.6,111.1v-1.7h0.8v1.7
			H86.6z M88.3,114.4h0.8v2.5h-0.8V114.4z"/>
		<path class="st7" d="M91.8,116.9v-7.5h0.8v0.8h0.8v1.7h-0.8v5H91.8z M93.5,111.9h0.8v1.7h-0.8V111.9z M94.3,115.2v-1.7h0.8v-4.2
			H96v7.5h-0.8v-1.7H94.3z"/>
		<path class="st7" d="M98.7,116.1v-5.8h0.8v5.8H98.7z M99.6,110.2v-0.8h2.5v0.8H99.6z M99.6,116.1h1.7v0.8h-1.7V116.1z
			 M100.4,113.6v-0.8h2.5v4.2h-0.8v-0.8h-0.8v-0.8h0.8v-1.7H100.4z M102.1,111.9v-1.7h0.8v1.7H102.1z"/>
		<path class="st7" d="M105.6,114.4h0.8v2.5h-0.8V114.4z M106.5,114.4v-3.3h0.8v2.5h0.8v-2.5h0.8v3.3H106.5z M107.3,111.1v-1.7h0.8
			v1.7H107.3z M109,114.4h0.8v2.5H109V114.4z"/>
		<path class="st7" d="M117.7,110.2v-0.8h4.2v0.8h-1.7v6.7h-0.8v-6.7H117.7z"/>
		<path class="st7" d="M124.7,116.9v-0.8h1.7v-5.8h-1.7v-0.8h4.2v0.8h-1.7v5.8h1.7v0.8H124.7z"/>
		<path class="st7" d="M131.6,116.9v-7.5h0.8v1.7h0.8v1.7h-0.8v4.2H131.6z M133.3,114.4v-1.7h0.8v1.7H133.3z M134.1,112.7v-1.7h0.8
			v-1.7h0.8v7.5h-0.8v-4.2H134.1z"/>
		<path class="st7" d="M138.5,116.9v-7.5h4.2v0.8h-3.4v2.5h3.4v0.8h-3.4v2.5h3.4v0.8H138.5z"/>
		<path class="st7" d="M150.6,116.9v-7.5h0.8v3.3h0.8v0.8h-0.8v3.3H150.6z M152.3,112.7v-0.8h0.8v0.8H152.3z M152.3,114.4v-0.8h0.8
			v0.8H152.3z M154,111.9h-0.8v-1.7h0.8V111.9z M154,114.4v1.7h-0.8v-1.7H154z M154,110.2v-0.8h0.8v0.8H154z M154,116.1h0.8v0.8H154
			V116.1z"/>
		<path class="st7" d="M157.5,116.9v-0.8h1.7v-5.8h-1.7v-0.8h4.2v0.8H160v5.8h1.7v0.8H157.5z"/>
		<path class="st7" d="M164.4,116.9v-7.5h3.4v0.8h-2.5v2.5h2.5v1.7H167v-0.8h-1.7v3.3H164.4z M167.8,112.7v-2.5h0.8v2.5H167.8z
			 M167.8,114.4h0.8v2.5h-0.8V114.4z"/>
		<path class="st7" d="M171.3,114.4h0.8v2.5h-0.8V114.4z M172.2,114.4v-3.3h0.8v2.5h0.8v-2.5h0.8v3.3H172.2z M173,111.1v-1.7h0.8
			v1.7H173z M174.7,114.4h0.8v2.5h-0.8V114.4z"/>
		<path class="st7" d="M178.2,116.9v-7.5h3.4v0.8h-2.5v2.5h2.5v1.7h-0.8v-0.8h-1.7v3.3H178.2z M181.6,112.7v-2.5h0.8v2.5H181.6z
			 M181.6,114.4h0.8v2.5h-0.8V114.4z"/>
		<path class="st7" d="M185.2,114.4h0.8v2.5h-0.8V114.4z M186,114.4v-3.3h0.8v2.5h0.8v-2.5h0.8v3.3H186z M186.8,111.1v-1.7h0.8v1.7
			H186.8z M188.5,114.4h0.8v2.5h-0.8V114.4z"/>
		<path class="st7" d="M197.3,116.9v-7.5h0.8v1.7h2.5v0.8h-2.5v5H197.3z M200.7,116.9v-5h0.8v5H200.7z"/>
		<path class="st7" d="M204.2,116.1v-4.2h0.8v4.2H204.2z M207.6,111.1v0.8H205v-0.8H207.6z M207.6,116.1v0.8H205v-0.8H207.6z
			 M207.6,111.9h0.8v4.2h-0.8V111.9z"/>
		<path class="st7" d="M211.1,116.9v-5.8h1.7v0.8H212v5H211.1z M212.8,116.9v-5h0.8v5H212.8z M213.6,111.9v-0.8h0.8v0.8H213.6z
			 M214.5,116.9v-5h0.8v5H214.5z"/>
		<path class="st7" d="M218,116.1v-4.2h0.8v4.2H218z M221.4,111.1v0.8h-2.5v-0.8H221.4z M221.4,116.1v0.8h-2.5v-0.8H221.4z
			 M221.4,111.9h0.8v4.2h-0.8V111.9z"/>
		<path class="st7" d="M230.1,116.9v-7.5h4.2v0.8H231v2.5h2.5v0.8H231v3.3H230.1z"/>
		<path class="st7" d="M237.1,114.4h0.8v2.5h-0.8V114.4z M237.9,114.4v-3.3h0.8v2.5h0.8v-2.5h0.8v3.3H237.9z M238.7,111.1v-1.7h0.8
			v1.7H238.7z M240.4,114.4h0.8v2.5h-0.8V114.4z"/>
		<path class="st7" d="M244,116.9v-7.5h0.8v0.8h0.8v1.7h-0.8v5H244z M245.7,111.9h0.8v1.7h-0.8V111.9z M246.5,115.2v-1.7h0.8v-4.2
			h0.8v7.5h-0.8v-1.7H246.5z"/>
		<path class="st7" d="M250.9,110.2v-0.8h4.2v0.8h-1.7v6.7h-0.8v-6.7H250.9z"/>
		<path class="st7" d="M257.8,114.4h0.8v2.5h-0.8V114.4z M258.6,114.4v-3.3h0.8v2.5h0.8v-2.5h0.8v3.3H258.6z M259.5,111.1v-1.7h0.8
			v1.7H259.5z M261.2,114.4h0.8v2.5h-0.8V114.4z"/>
		<path class="st7" d="M264.7,111.9v-1.7h0.8v1.7H264.7z M264.7,114.4h0.8v1.7h-0.8V114.4z M268.1,110.2h-2.5v-0.8h2.5V110.2z
			 M266.4,111.9v0.8h-0.8v-0.8H266.4z M268.1,116.1v0.8h-2.5v-0.8H268.1z M266.4,112.7h0.8v0.8h-0.8V112.7z M268.1,113.6v0.8h-0.8
			v-0.8H268.1z M268.1,111.9v-1.7h0.8v1.7H268.1z M268.1,114.4h0.8v1.7h-0.8V114.4z"/>
		<path class="st7" d="M271.6,111.9v-2.5h0.8v2.5H271.6z M272.4,111.9h0.8v1.7h-0.8V111.9z M273.3,116.9v-3.3h0.8v3.3H273.3z
			 M274.1,111.9h0.8v1.7h-0.8V111.9z M275,111.9v-2.5h0.8v2.5H275z"/>
		<path class="st7" d="M283.7,116.9v-7.5h3.4v0.8h-2.5v2.5h2.5v1.7h-0.8v-0.8h-1.7v3.3H283.7z M287.1,112.7v-2.5h0.8v2.5H287.1z
			 M287.1,114.4h0.8v2.5h-0.8V114.4z"/>
		<path class="st7" d="M290.6,116.9v-7.5h3.4v0.8h-2.5v2.5h2.5v0.8h-2.5v3.3H290.6z M294,112.7v-2.5h0.8v2.5H294z"/>
		<path class="st7" d="M297.6,116.1v-5.8h0.8v5.8H297.6z M298.4,110.2v-0.8h2.5v0.8H298.4z M298.4,116.1h1.7v0.8h-1.7V116.1z
			 M299.2,113.6v-0.8h2.5v4.2h-0.8v-0.8h-0.8v-0.8h0.8v-1.7H299.2z M300.9,111.9v-1.7h0.8v1.7H300.9z"/>
	</g>
</g>
</svg>
